<mxfile host="app.diagrams.net" agent="Mozilla/5.0 (Windows NT 10.0; Win64; x64) AppleWebKit/537.36 (KHTML, like Gecko) Chrome/140.0.0.0 Safari/537.36" version="28.2.5">
  <diagram name="Page-1" id="rdOFqBrSL5WiTvzf9g-X">
    <mxGraphModel dx="791" dy="513" grid="1" gridSize="10" guides="1" tooltips="1" connect="1" arrows="1" fold="1" page="1" pageScale="1" pageWidth="827" pageHeight="1169" math="0" shadow="0">
      <root>
        <mxCell id="0" />
        <mxCell id="1" parent="0" />
        <mxCell id="OkFZesUfFe6G5yljz3-_-21" value="" style="edgeStyle=orthogonalEdgeStyle;rounded=0;orthogonalLoop=1;jettySize=auto;html=1;" edge="1" parent="1" source="OkFZesUfFe6G5yljz3-_-24" target="OkFZesUfFe6G5yljz3-_-30">
          <mxGeometry relative="1" as="geometry" />
        </mxCell>
        <mxCell id="OkFZesUfFe6G5yljz3-_-22" style="edgeStyle=orthogonalEdgeStyle;rounded=0;orthogonalLoop=1;jettySize=auto;html=1;exitX=0.08;exitY=0.05;exitDx=0;exitDy=0;exitPerimeter=0;" edge="1" parent="1" source="OkFZesUfFe6G5yljz3-_-24" target="OkFZesUfFe6G5yljz3-_-31">
          <mxGeometry relative="1" as="geometry" />
        </mxCell>
        <mxCell id="OkFZesUfFe6G5yljz3-_-23" style="edgeStyle=orthogonalEdgeStyle;rounded=0;orthogonalLoop=1;jettySize=auto;html=1;exitX=1;exitY=0;exitDx=0;exitDy=0;exitPerimeter=0;" edge="1" parent="1" source="OkFZesUfFe6G5yljz3-_-24" target="OkFZesUfFe6G5yljz3-_-33">
          <mxGeometry relative="1" as="geometry" />
        </mxCell>
        <mxCell id="OkFZesUfFe6G5yljz3-_-24" value="" style="shape=mxgraph.cisco.switches.layer_3_switch;sketch=0;html=1;pointerEvents=1;dashed=0;fillColor=#036897;strokeColor=#ffffff;strokeWidth=2;verticalLabelPosition=bottom;verticalAlign=top;align=center;outlineConnect=0;" vertex="1" parent="1">
          <mxGeometry x="230" y="320" width="74" height="64" as="geometry" />
        </mxCell>
        <mxCell id="OkFZesUfFe6G5yljz3-_-25" value="" style="edgeStyle=orthogonalEdgeStyle;rounded=0;orthogonalLoop=1;jettySize=auto;html=1;" edge="1" parent="1" source="OkFZesUfFe6G5yljz3-_-29" target="OkFZesUfFe6G5yljz3-_-35">
          <mxGeometry relative="1" as="geometry" />
        </mxCell>
        <mxCell id="OkFZesUfFe6G5yljz3-_-26" style="edgeStyle=orthogonalEdgeStyle;rounded=0;orthogonalLoop=1;jettySize=auto;html=1;exitX=0.08;exitY=0.05;exitDx=0;exitDy=0;exitPerimeter=0;" edge="1" parent="1" source="OkFZesUfFe6G5yljz3-_-29" target="OkFZesUfFe6G5yljz3-_-34">
          <mxGeometry relative="1" as="geometry" />
        </mxCell>
        <mxCell id="OkFZesUfFe6G5yljz3-_-27" style="edgeStyle=orthogonalEdgeStyle;rounded=0;orthogonalLoop=1;jettySize=auto;html=1;exitX=1;exitY=0;exitDx=0;exitDy=0;exitPerimeter=0;" edge="1" parent="1" source="OkFZesUfFe6G5yljz3-_-29" target="OkFZesUfFe6G5yljz3-_-36">
          <mxGeometry relative="1" as="geometry" />
        </mxCell>
        <mxCell id="OkFZesUfFe6G5yljz3-_-28" style="edgeStyle=orthogonalEdgeStyle;rounded=0;orthogonalLoop=1;jettySize=auto;html=1;" edge="1" parent="1" source="OkFZesUfFe6G5yljz3-_-29" target="OkFZesUfFe6G5yljz3-_-37">
          <mxGeometry relative="1" as="geometry" />
        </mxCell>
        <mxCell id="OkFZesUfFe6G5yljz3-_-29" value="" style="shape=mxgraph.cisco.switches.layer_3_switch;sketch=0;html=1;pointerEvents=1;dashed=0;fillColor=#036897;strokeColor=#ffffff;strokeWidth=2;verticalLabelPosition=bottom;verticalAlign=top;align=center;outlineConnect=0;" vertex="1" parent="1">
          <mxGeometry x="520" y="320" width="64" height="64" as="geometry" />
        </mxCell>
        <mxCell id="OkFZesUfFe6G5yljz3-_-30" value="" style="shape=mxgraph.cisco.computers_and_peripherals.pc;sketch=0;html=1;pointerEvents=1;dashed=0;fillColor=#036897;strokeColor=#ffffff;strokeWidth=2;verticalLabelPosition=bottom;verticalAlign=top;align=center;outlineConnect=0;" vertex="1" parent="1">
          <mxGeometry x="50" y="340" width="78" height="70" as="geometry" />
        </mxCell>
        <mxCell id="OkFZesUfFe6G5yljz3-_-31" value="" style="shape=mxgraph.cisco.computers_and_peripherals.pc;sketch=0;html=1;pointerEvents=1;dashed=0;fillColor=#036897;strokeColor=#ffffff;strokeWidth=2;verticalLabelPosition=bottom;verticalAlign=top;align=center;outlineConnect=0;" vertex="1" parent="1">
          <mxGeometry x="70" y="200" width="78" height="70" as="geometry" />
        </mxCell>
        <mxCell id="OkFZesUfFe6G5yljz3-_-32" value="" style="shape=mxgraph.cisco.computers_and_peripherals.pc;sketch=0;html=1;pointerEvents=1;dashed=0;fillColor=#036897;strokeColor=#ffffff;strokeWidth=2;verticalLabelPosition=bottom;verticalAlign=top;align=center;outlineConnect=0;" vertex="1" parent="1">
          <mxGeometry x="170" y="200" width="78" height="70" as="geometry" />
        </mxCell>
        <mxCell id="OkFZesUfFe6G5yljz3-_-33" value="" style="shape=mxgraph.cisco.computers_and_peripherals.pc;sketch=0;html=1;pointerEvents=1;dashed=0;fillColor=#036897;strokeColor=#ffffff;strokeWidth=2;verticalLabelPosition=bottom;verticalAlign=top;align=center;outlineConnect=0;" vertex="1" parent="1">
          <mxGeometry x="270" y="190" width="78" height="70" as="geometry" />
        </mxCell>
        <mxCell id="OkFZesUfFe6G5yljz3-_-34" value="" style="shape=mxgraph.cisco.computers_and_peripherals.pc;sketch=0;html=1;pointerEvents=1;dashed=0;fillColor=#036897;strokeColor=#ffffff;strokeWidth=2;verticalLabelPosition=bottom;verticalAlign=top;align=center;outlineConnect=0;" vertex="1" parent="1">
          <mxGeometry x="486" y="180" width="78" height="70" as="geometry" />
        </mxCell>
        <mxCell id="OkFZesUfFe6G5yljz3-_-35" value="" style="shape=mxgraph.cisco.computers_and_peripherals.pc;sketch=0;html=1;pointerEvents=1;dashed=0;fillColor=#036897;strokeColor=#ffffff;strokeWidth=2;verticalLabelPosition=bottom;verticalAlign=top;align=center;outlineConnect=0;" vertex="1" parent="1">
          <mxGeometry x="572" y="180" width="78" height="70" as="geometry" />
        </mxCell>
        <mxCell id="OkFZesUfFe6G5yljz3-_-36" value="" style="shape=mxgraph.cisco.computers_and_peripherals.pc;sketch=0;html=1;pointerEvents=1;dashed=0;fillColor=#036897;strokeColor=#ffffff;strokeWidth=2;verticalLabelPosition=bottom;verticalAlign=top;align=center;outlineConnect=0;" vertex="1" parent="1">
          <mxGeometry x="680" y="190" width="78" height="70" as="geometry" />
        </mxCell>
        <mxCell id="OkFZesUfFe6G5yljz3-_-37" value="" style="shape=mxgraph.cisco.computers_and_peripherals.pc;sketch=0;html=1;pointerEvents=1;dashed=0;fillColor=#036897;strokeColor=#ffffff;strokeWidth=2;verticalLabelPosition=bottom;verticalAlign=top;align=center;outlineConnect=0;" vertex="1" parent="1">
          <mxGeometry x="650" y="320" width="78" height="70" as="geometry" />
        </mxCell>
        <mxCell id="OkFZesUfFe6G5yljz3-_-38" style="edgeStyle=orthogonalEdgeStyle;rounded=0;orthogonalLoop=1;jettySize=auto;html=1;entryX=0.5;entryY=1;entryDx=0;entryDy=0;entryPerimeter=0;" edge="1" parent="1" source="OkFZesUfFe6G5yljz3-_-24" target="OkFZesUfFe6G5yljz3-_-32">
          <mxGeometry relative="1" as="geometry" />
        </mxCell>
        <mxCell id="OkFZesUfFe6G5yljz3-_-39" style="edgeStyle=orthogonalEdgeStyle;rounded=0;orthogonalLoop=1;jettySize=auto;html=1;" edge="1" parent="1" source="OkFZesUfFe6G5yljz3-_-41" target="OkFZesUfFe6G5yljz3-_-29">
          <mxGeometry relative="1" as="geometry" />
        </mxCell>
        <mxCell id="OkFZesUfFe6G5yljz3-_-40" style="edgeStyle=orthogonalEdgeStyle;rounded=0;orthogonalLoop=1;jettySize=auto;html=1;" edge="1" parent="1" source="OkFZesUfFe6G5yljz3-_-41">
          <mxGeometry relative="1" as="geometry">
            <mxPoint x="270" y="390" as="targetPoint" />
          </mxGeometry>
        </mxCell>
        <mxCell id="OkFZesUfFe6G5yljz3-_-41" value="" style="shape=mxgraph.cisco.switches.layer_3_switch;sketch=0;html=1;pointerEvents=1;dashed=0;fillColor=#036897;strokeColor=#ffffff;strokeWidth=2;verticalLabelPosition=bottom;verticalAlign=top;align=center;outlineConnect=0;" vertex="1" parent="1">
          <mxGeometry x="370" y="430" width="80" height="64" as="geometry" />
        </mxCell>
      </root>
    </mxGraphModel>
  </diagram>
</mxfile>
